<svg xmlns="http://www.w3.org/2000/svg" aria-hidden="true" style="position:absolute;width:0;height:0;overflow:hidden">
  <defs>
    <symbol id="arrow-down" viewBox="0 0 32 32">
      <path stroke-width="1.6" d="M1.6 8.8 16 23.2 30.4 8.8"/>
    </symbol>
    <symbol id="arrow-up" viewBox="0 0 32 32">
      <path stroke-width="1.6" d="M1.6 23.2 16 8.8l14.4 14.4"/>
    </symbol>
    <symbol id="calendar" viewBox="0 0 32 32">
      <path d="M12 14.667H9.333v2.667H12v-2.667zm5.333 0h-2.667v2.667h2.667v-2.667zm5.334 0H20v2.667h2.667v-2.667zm2.666-9.334H24V2.666h-2.667v2.667H10.666V2.666H7.999v2.667H6.666c-1.48 0-2.653 1.2-2.653 2.667L4 26.667a2.666 2.666 0 0 0 2.667 2.667h18.667c1.467 0 2.667-1.2 2.667-2.667V8c0-1.467-1.2-2.667-2.667-2.667zm0 21.334H6.666V12h18.667v14.667z"/>
    </symbol>
    <symbol id="close-btn" viewBox="0 0 32 32">
      <path stroke-width="1.778" d="m1.778 1.778 28.444 28.444M1.778 30.222 30.222 1.778"/>
    </symbol>
    <symbol id="currency" viewBox="0 0 32 32">
      <path d="M6.545 2.182a4.364 4.364 0 0 0-4.364 4.364v18.909a4.364 4.364 0 0 0 4.364 4.364h18.909a4.364 4.364 0 0 0 4.364-4.364V6.546a4.364 4.364 0 0 0-4.364-4.364H6.545zm7.093 11.344c0 .86.661 1.412 2.715 1.946s4.253 1.412 4.253 3.982c0 1.855-1.403 2.878-3.167 3.212v1.946h-2.715v-1.964c-1.737-.371-3.222-1.484-3.33-3.466h1.991c.1 1.068.833 1.9 2.697 1.9 2 0 2.443-.995 2.443-1.62 0-.842-.452-1.638-2.715-2.181-2.525-.606-4.253-1.647-4.253-3.737 0-1.747 1.412-2.887 3.167-3.267V8.322h2.715v1.982c1.891.462 2.841 1.891 2.905 3.448h-2c-.054-1.131-.651-1.9-2.262-1.9-1.529 0-2.443.688-2.443 1.674z"/>
    </symbol>
    <symbol id="edit" viewBox="0 0 32 32">
      <path stroke-linecap="round" stroke-linejoin="round" stroke-width="2.56" d="m23.467 13.511-4.978-4.978M4.178 27.823l4.212-.468c.515-.057.772-.086 1.012-.164.213-.069.416-.167.604-.29.211-.139.394-.322.76-.688L27.201 9.779a3.52 3.52 0 1 0-4.978-4.978L5.789 21.235c-.366.366-.549.549-.688.76a2.49 2.49 0 0 0-.29.604c-.078.24-.106.498-.164 1.012l-.468 4.212z"/>
    </symbol>
    <symbol id="email" viewBox="0 0 32 32">
      <path d="M26.667 5.333H5.334A2.663 2.663 0 0 0 2.681 8l-.013 16c0 1.467 1.2 2.667 2.667 2.667h21.333c1.467 0 2.667-1.2 2.667-2.667V8c0-1.467-1.2-2.667-2.667-2.667zm0 5.334L16 17.334 5.333 10.667V8L16 14.667 26.667 8v2.667z"/>
    </symbol>
    <symbol id="exit" viewBox="0 0 32 32">
      <path d="M20.051 23.237h2.499v4.997a3.752 3.752 0 0 1-3.748 3.748H3.748A3.752 3.752 0 0 1 0 28.234V3.748A3.752 3.752 0 0 1 3.748 0h15.054a3.752 3.752 0 0 1 3.748 3.748v4.997h-2.499V3.748a1.25 1.25 0 0 0-1.249-1.249H3.748a1.25 1.25 0 0 0-1.249 1.249v24.486a1.25 1.25 0 0 0 1.249 1.249h15.054a1.25 1.25 0 0 0 1.249-1.249v-4.997zm6.06-13.135-1.767 1.767 2.873 2.874H11.056v2.499h16.161l-2.873 2.873 1.767 1.767L32 15.993l-5.889-5.89z"/>
    </symbol>
    <symbol id="home-mob" viewBox="0 0 32 32">
      <path d="M6.545 2.182a4.364 4.364 0 0 0-4.364 4.364v18.909a4.364 4.364 0 0 0 4.364 4.364h18.909a4.364 4.364 0 0 0 4.364-4.364V6.546a4.364 4.364 0 0 0-4.364-4.364H6.545zm7.225 15.534v5.961H8.8v-7.948H5.818l9.939-8.941 9.939 8.941h-2.982v7.948h-4.97v-5.961h-3.976z"/>
    </symbol>
    <symbol id="home" viewBox="0 0 32 32">
      <path d="M6.667 4A2.667 2.667 0 0 0 4 6.667v18.667a2.667 2.667 0 0 0 2.667 2.667h18.667a2.667 2.667 0 0 0 2.667-2.667V6.667A2.667 2.667 0 0 0 25.334 4H6.667zM14.4 17.49v5.177h-4v-6.902H8L16 8l8 7.765h-2.4v6.902h-4V17.49h-3.2z"/>
    </symbol>
    <symbol id="lock" viewBox="0 0 32 32">
      <path d="M24 10.667h-1.333V8c0-3.68-2.987-6.667-6.667-6.667S9.333 4.32 9.333 8v2.667H8a2.675 2.675 0 0 0-2.667 2.667v13.333c0 1.467 1.2 2.667 2.667 2.667h16c1.467 0 2.667-1.2 2.667-2.667V13.334c0-1.467-1.2-2.667-2.667-2.667zm-8 12c-1.467 0-2.667-1.2-2.667-2.667s1.2-2.667 2.667-2.667c1.467 0 2.667 1.2 2.667 2.667s-1.2 2.667-2.667 2.667zm4.133-12h-8.267V8c0-2.28 1.853-4.133 4.133-4.133S20.132 5.72 20.132 8v2.667z"/>
    </symbol>
    <symbol id="stat-mob" viewBox="0 0 32 32">
      <path d="M6.545 2.182h18.909a4.364 4.364 0 0 1 4.364 4.364v18.909a4.364 4.364 0 0 1-4.364 4.364H6.545a4.364 4.364 0 0 1-4.364-4.364V6.546a4.364 4.364 0 0 1 4.364-4.364zm17.091 12.04c.933 0 1.697-.8 1.697-1.778s-.764-1.778-1.697-1.778-1.697.8-1.697 1.778c0 .16.017.311.059.453l-3.012 3.164c-.136-.044-.288-.062-.441-.062s-.305.018-.441.062l-2.164-2.267c.042-.142.059-.302.059-.462 0-.978-.764-1.778-1.697-1.778s-1.697.8-1.697 1.778c0 .16.017.32.059.462l-3.869 4.044a1.396 1.396 0 0 0-.433-.062c-.933 0-1.697.8-1.697 1.778s.764 1.778 1.697 1.778 1.697-.8 1.697-1.778c0-.16-.017-.311-.059-.453l3.861-4.053c.136.044.288.062.441.062s.305-.018.441-.062l2.164 2.267a1.653 1.653 0 0 0-.059.462c0 .978.764 1.778 1.697 1.778s1.697-.8 1.697-1.778c0-.16-.017-.32-.059-.462l3.021-3.156c.136.044.28.062.433.062z"/>
    </symbol>
    <symbol id="stat" viewBox="0 0 32 32">
      <path d="M6.667 4h18.667a2.667 2.667 0 0 1 2.667 2.667v18.667a2.667 2.667 0 0 1-2.667 2.667H6.667A2.667 2.667 0 0 1 4 25.334V6.667A2.667 2.667 0 0 1 6.667 4zm16.969 10.222c.933 0 1.697-.8 1.697-1.778s-.764-1.778-1.697-1.778-1.697.8-1.697 1.778c0 .16.017.311.059.453l-3.012 3.165c-.136-.045-.289-.062-.441-.062s-.305.018-.441.062l-2.164-2.267c.042-.142.059-.302.059-.462 0-.978-.764-1.778-1.697-1.778s-1.697.8-1.697 1.778c0 .16.017.32.059.462l-3.869 4.044a1.396 1.396 0 0 0-.433-.062c-.933 0-1.697.8-1.697 1.778s.764 1.778 1.697 1.778 1.697-.8 1.697-1.778c0-.16-.017-.311-.059-.453l3.861-4.053c.136.044.288.062.441.062s.305-.018.441-.062l2.164 2.267a1.653 1.653 0 0 0-.059.462c0 .978.764 1.778 1.697 1.778s1.697-.8 1.697-1.778c0-.16-.017-.32-.059-.462l3.021-3.156c.136.044.28.062.433.062z"/>
    </symbol>
    <symbol id="user" viewBox="0 0 32 32">
      <path d="M16 20c-4.227 0-7.986 2.041-10.379 5.208-.515.682-.773 1.022-.764 1.483.006.356.23.805.51 1.025.362.284.865.284 1.869.284h17.527c1.004 0 1.507 0 1.869-.284.28-.22.503-.669.51-1.025.008-.461-.249-.801-.764-1.483C23.985 22.041 20.226 20 15.999 20zM16 16a6 6 0 1 0 0-12 6 6 0 0 0 0 12z"/>
    </symbol>
  </defs>
</svg>
