<svg aria-hidden="true" xmlns="http://www.w3.org/2000/svg">
    <defs>
        <symbol id="icon-email" viewBox="0 0 32 32">
            <path
                d="M26.24 5.76h-20.48c-1.408 0-2.547 1.152-2.547 2.56l-0.013 15.36c0 1.408 1.152 2.56 2.56 2.56h20.48c1.408 0 2.56-1.152 2.56-2.56v-15.36c0-1.408-1.152-2.56-2.56-2.56zM26.24 10.88l-10.24 6.4-10.24-6.4v-2.56l10.24 6.4 10.24-6.4v2.56z">
            </path>
        </symbol>
        <symbol id="icon-lock" viewBox="0 0 32 32">
            <path
                d="M23.68 10.88h-1.28v-2.56c0-3.533-2.867-6.4-6.4-6.4s-6.4 2.867-6.4 6.4v2.56h-1.28c-1.408 0-2.56 1.152-2.56 2.56v12.8c0 1.408 1.152 2.56 2.56 2.56h15.36c1.408 0 2.56-1.152 2.56-2.56v-12.8c0-1.408-1.152-2.56-2.56-2.56zM16 22.4c-1.408 0-2.56-1.152-2.56-2.56s1.152-2.56 2.56-2.56c1.408 0 2.56 1.152 2.56 2.56s-1.152 2.56-2.56 2.56zM19.968 10.88h-7.936v-2.56c0-2.189 1.779-3.968 3.968-3.968s3.968 1.779 3.968 3.968v2.56z">
            </path>
        </symbol>
        <symbol id="icon-user" viewBox="0 0 32 32">
            <path
                d="M16 20c-4.227 0-7.986 2.041-10.379 5.208-0.515 0.682-0.773 1.022-0.764 1.483 0.006 0.356 0.23 0.805 0.51 1.025 0.362 0.284 0.865 0.284 1.869 0.284h17.527c1.004 0 1.507 0 1.869-0.284 0.28-0.22 0.503-0.669 0.51-1.025 0.008-0.461-0.249-0.801-0.764-1.483-2.393-3.167-6.152-5.208-10.379-5.208z">
            </path>
            <path d="M16 16c3.314 0 6-2.686 6-6s-2.686-6-6-6c-3.314 0-6 2.686-6 6s2.686 6 6 6z"></path>
        </symbol>
        <symbol id="icon-exit" viewBox="0 0 32 32">
            <path
                d="M20.051 23.237h2.499v4.997c0 2.067-1.681 3.748-3.748 3.748h-15.054c-2.066 0-3.748-1.681-3.748-3.748v-24.486c0-2.066 1.681-3.748 3.748-3.748h15.054c2.067 0 3.748 1.681 3.748 3.748v4.997h-2.499v-4.997c0-0.689-0.56-1.249-1.249-1.249h-15.054c-0.689 0-1.249 0.561-1.249 1.249v24.486c0 0.689 0.561 1.249 1.249 1.249h15.054c0.689 0 1.249-0.561 1.249-1.249v-4.997zM26.111 10.102l-1.767 1.767 2.873 2.874h-16.161v2.499h16.161l-2.873 2.873 1.767 1.767 5.889-5.889-5.889-5.89z">
            </path>
        </symbol>
        <symbol id="icon-home" viewBox="0 0 32 32">
            <path
                d="M6.545 2.182c-2.41 0-4.364 1.954-4.364 4.364v18.909c0 2.41 1.954 4.364 4.364 4.364h18.909c2.41 0 4.364-1.954 4.364-4.364v-18.909c0-2.41-1.954-4.364-4.364-4.364h-18.909zM13.77 17.716v5.961h-4.97v-7.948h-2.982l9.939-8.941 9.939 8.941h-2.982v7.948h-4.97v-5.961h-3.976z">
            </path>
        </symbol>
        <symbol id="icon-graphic" viewBox="0 0 32 32">
            <path
                d="M6.545 2.182h18.909c2.41 0 4.364 1.954 4.364 4.364v18.909c0 2.41-1.954 4.364-4.364 4.364h-18.909c-2.41 0-4.364-1.954-4.364-4.364v-18.909c0-2.41 1.954-4.364 4.364-4.364zM23.636 14.222c0.933 0 1.697-0.8 1.697-1.778s-0.764-1.778-1.697-1.778c-0.933 0-1.697 0.8-1.697 1.778 0 0.16 0.017 0.311 0.059 0.453l-3.012 3.164c-0.136-0.044-0.288-0.062-0.441-0.062s-0.305 0.018-0.441 0.062l-2.164-2.267c0.042-0.142 0.059-0.302 0.059-0.462 0-0.978-0.764-1.778-1.697-1.778s-1.697 0.8-1.697 1.778c0 0.16 0.017 0.32 0.059 0.462l-3.869 4.044c-0.136-0.044-0.28-0.062-0.433-0.062-0.933 0-1.697 0.8-1.697 1.778s0.764 1.778 1.697 1.778c0.933 0 1.697-0.8 1.697-1.778 0-0.16-0.017-0.311-0.059-0.453l3.861-4.053c0.136 0.044 0.288 0.062 0.441 0.062s0.305-0.018 0.441-0.062l2.164 2.267c-0.042 0.142-0.059 0.302-0.059 0.462 0 0.978 0.764 1.778 1.697 1.778s1.697-0.8 1.697-1.778c0-0.16-0.017-0.32-0.059-0.462l3.021-3.156c0.136 0.044 0.28 0.062 0.433 0.062z">
            </path>
        </symbol>
        <symbol id="icon-dollar" viewBox="0 0 32 32">
            <path
                d="M6.545 2.182c-2.41 0-4.364 1.954-4.364 4.364v18.909c0 2.41 1.954 4.364 4.364 4.364h18.909c2.41 0 4.364-1.954 4.364-4.364v-18.909c0-2.41-1.954-4.364-4.364-4.364h-18.909zM13.638 13.526c0 0.86 0.661 1.412 2.715 1.946s4.253 1.412 4.253 3.982c0 1.855-1.403 2.878-3.167 3.212v1.946h-2.715v-1.964c-1.737-0.371-3.222-1.484-3.33-3.466h1.991c0.1 1.068 0.833 1.9 2.697 1.9 2 0 2.443-0.995 2.443-1.62 0-0.842-0.452-1.638-2.715-2.181-2.525-0.606-4.253-1.647-4.253-3.737 0-1.747 1.412-2.887 3.167-3.267v-1.955h2.715v1.982c1.891 0.462 2.841 1.891 2.905 3.448h-2c-0.054-1.131-0.651-1.9-2.262-1.9-1.529 0-2.443 0.688-2.443 1.674z">
            </path>
        </symbol>
        <symbol id="icon-plus" viewBox="0 0 32 32">
            <path fill="none" stroke="#fff" style="stroke: var(--color1, #fff)      " stroke-linejoin="miter"
                stroke-linecap="butt" stroke-miterlimit="4" stroke-width="3.2" d="M16 0v32"></path>
            <path fill="none" stroke="#fff" style="stroke: var(--color1, #fff)      " stroke-linejoin="miter"
                stroke-linecap="butt" stroke-miterlimit="4" stroke-width="3.2" d="M0 16h32"></path>
        </symbol>
        <symbol id="icon-minus" viewBox="0 0 32 32">
            <path stroke-linejoin="miter" stroke-linecap="butt" stroke-miterlimit="4" stroke-width="3.2" d="M0 16h32">
            </path>
        </symbol>
        <symbol id="icon-calendar" viewBox="0 0 32 32">
            <path
                d="M12 14.667h-2.667v2.667h2.667v-2.667zM17.333 14.667h-2.667v2.667h2.667v-2.667zM22.667 14.667h-2.667v2.667h2.667v-2.667zM25.333 5.333h-1.333v-2.667h-2.667v2.667h-10.667v-2.667h-2.667v2.667h-1.333c-1.48 0-2.653 1.2-2.653 2.667l-0.013 18.667c0 1.467 1.187 2.667 2.667 2.667h18.667c1.467 0 2.667-1.2 2.667-2.667v-18.667c0-1.467-1.2-2.667-2.667-2.667zM25.333 26.667h-18.667v-14.667h18.667v14.667z">
            </path>
        </symbol>
        <symbol id="icon-pen" viewBox="0 0 32 32">
            <path stroke-linejoin="round" stroke-linecap="round" stroke-miterlimit="4" stroke-width="2.56"
                d="M23.467 13.511l-4.978-4.978M4.178 27.823l4.212-0.468c0.515-0.057 0.772-0.086 1.012-0.164 0.213-0.069 0.416-0.167 0.604-0.29 0.211-0.139 0.394-0.322 0.76-0.688l16.435-16.434c1.375-1.375 1.375-3.603 0-4.978s-3.603-1.375-4.978 0l-16.434 16.434c-0.366 0.366-0.549 0.549-0.688 0.76-0.123 0.187-0.221 0.39-0.29 0.604-0.078 0.24-0.106 0.498-0.164 1.012l-0.468 4.212z">
            </path>
        </symbol>
        <symbol id="icon-close" viewBox="0 0 32 32">
            <path stroke-linejoin="miter" stroke-linecap="butt" stroke-miterlimit="4" stroke-width="1.7778"
                d="M1.778 1.778l28.444 28.444"></path>
            <path stroke-linejoin="miter" stroke-linecap="butt" stroke-miterlimit="4" stroke-width="1.7778"
                d="M1.778 30.222l28.444-28.444"></path>
        </symbol>
        <symbol id="icon-vector-up" viewBox="0 0 58 32">
            <path fill="none" stroke="#fbfbfb" style="stroke: var(--color1, #fbfbfb)" stroke-linejoin="miter" stroke-linecap="butt" stroke-miterlimit="4" stroke-width="2.9091" d="M55.273 29.091l-26.182-26.182-26.182 26.182"></path>
        </symbol>
        <symbol id="icon-vector-down" viewBox="0 0 58 32">
            <path fill="none" stroke="#fbfbfb" style="stroke: var(--color1, #fbfbfb)" stroke-linejoin="miter" stroke-linecap="butt" stroke-miterlimit="4" stroke-width="2.9091" d="M2.909 2.909l26.182 26.182 26.182-26.182"></path>
        </symbol>
        <symbol id="icon-eye-blocked" viewBox="0 0 32 32">
            <path
                d="M29.561 0.439c-0.586-0.586-1.535-0.586-2.121 0l-6.318 6.318c-1.623-0.492-3.342-0.757-5.122-0.757-6.979 0-13.028 4.064-16 10 1.285 2.566 3.145 4.782 5.407 6.472l-4.968 4.968c-0.586 0.586-0.586 1.535 0 2.121 0.293 0.293 0.677 0.439 1.061 0.439s0.768-0.146 1.061-0.439l27-27c0.586-0.586 0.586-1.536 0-2.121zM13 10c1.32 0 2.44 0.853 2.841 2.037l-3.804 3.804c-1.184-0.401-2.037-1.521-2.037-2.841 0-1.657 1.343-3 3-3zM3.441 16c1.197-1.891 2.79-3.498 4.67-4.697 0.122-0.078 0.246-0.154 0.371-0.228-0.311 0.854-0.482 1.776-0.482 2.737 0 1.715 0.54 3.304 1.459 4.607l-1.904 1.904c-1.639-1.151-3.038-2.621-4.114-4.323z">
            </path>
            <path
                d="M24 13.813c0-0.849-0.133-1.667-0.378-2.434l-10.056 10.056c0.768 0.245 1.586 0.378 2.435 0.378 4.418 0 8-3.582 8-8z">
            </path>
            <path
                d="M25.938 9.062l-2.168 2.168c0.040 0.025 0.079 0.049 0.118 0.074 1.88 1.199 3.473 2.805 4.67 4.697-1.197 1.891-2.79 3.498-4.67 4.697-2.362 1.507-5.090 2.303-7.889 2.303-1.208 0-2.403-0.149-3.561-0.439l-2.403 2.403c1.866 0.671 3.873 1.036 5.964 1.036 6.978 0 13.027-4.064 16-10-1.407-2.81-3.504-5.2-6.062-6.938z">
            </path>
        </symbol>
        <symbol id="icon-eye" viewBox="0 0 32 32">
            <path
                d="M16 6c-6.979 0-13.028 4.064-16 10 2.972 5.936 9.021 10 16 10s13.027-4.064 16-10c-2.972-5.936-9.021-10-16-10zM23.889 11.303c1.88 1.199 3.473 2.805 4.67 4.697-1.197 1.891-2.79 3.498-4.67 4.697-2.362 1.507-5.090 2.303-7.889 2.303s-5.527-0.796-7.889-2.303c-1.88-1.199-3.473-2.805-4.67-4.697 1.197-1.891 2.79-3.498 4.67-4.697 0.122-0.078 0.246-0.154 0.371-0.228-0.311 0.854-0.482 1.776-0.482 2.737 0 4.418 3.582 8 8 8s8-3.582 8-8c0-0.962-0.17-1.883-0.482-2.737 0.124 0.074 0.248 0.15 0.371 0.228v0zM16 13c0 1.657-1.343 3-3 3s-3-1.343-3-3 1.343-3 3-3 3 1.343 3 3z">
            </path>
        </symbol>
            <symbol id="statistics" viewBox="0 0 56 32">
            <path d="M55.985 5.324c0 2.924-2.291 5.324-5.084 5.324-0.458 0-0.895-0.044-1.309-0.175l-9.054 9.469c0.131 0.415 0.175 0.895 0.175 1.375 0 2.945-2.291 5.345-5.084 5.345s-5.084-2.4-5.084-5.345c0-0.48 0.044-0.96 0.175-1.375l-6.502-6.807c-0.393 0.131-0.851 0.196-1.309 0.196s-0.916-0.065-1.331-0.196l-11.585 12.153c0.131 0.436 0.175 0.895 0.175 1.375 0 2.924-2.291 5.324-5.084 5.324s-5.084-2.4-5.084-5.324c0-2.945 2.291-5.345 5.084-5.345 0.458 0 0.895 0.065 1.287 0.196l11.607-12.131c-0.131-0.436-0.175-0.916-0.175-1.396 0-2.924 2.291-5.324 5.105-5.324 2.793 0 5.084 2.4 5.084 5.324 0 0.48-0.044 0.96-0.175 1.396l6.48 6.785c0.415-0.131 0.873-0.175 1.331-0.175s0.916 0.044 1.331 0.175l9.033-9.491c-0.131-0.415-0.175-0.873-0.175-1.353 0-2.924 2.291-5.324 5.084-5.324s5.084 2.4 5.084 5.324z"></path>
        </symbol>
        <symbol id="dollar" viewBox="0 0 18 32">
            <path d="M9.73 14.030c-4.029-1.043-5.329-2.129-5.329-3.815 0-1.943 1.8-3.286 4.801-3.286 3.172 0 4.343 1.514 4.443 3.729h3.929c-0.129-3.058-1.986-5.872-5.701-6.772v-3.886h-5.344v3.829c-3.443 0.757-6.215 2.986-6.215 6.415 0 4.115 3.4 6.158 8.358 7.344 4.443 1.072 5.329 2.629 5.329 4.286 0 1.229-0.872 3.186-4.801 3.186-3.658 0-5.101-1.643-5.301-3.729h-3.901c0.2 3.886 3.115 6.072 6.529 6.801v3.858h5.344v-3.815c3.458-0.657 6.215-2.672 6.215-6.315 0-5.044-4.315-6.772-8.358-7.83z"></path>
        </symbol>
        <symbol id="home" viewBox="0 0 38 32">
            <path d="M15.061 31.997v-11.3h7.538v11.3h9.412v-15.061h5.65l-18.837-16.936-18.823 16.936h5.636v15.061h9.425z"></path>
        </symbol>
        <symbol id="new-dollar" viewBox="0 0 32 32">
            <path d="M32 0H0v32h32V0zM13.265 13.136c0 .995.765 1.635 3.144 2.253s4.925 1.635 4.925 4.61c0 2.148-1.624 3.332-3.667 3.72v2.253h-3.143v-2.274c-2.012-.43-3.73-1.718-3.856-4.013h2.305c.115 1.236.964 2.2 3.123 2.2 2.316 0 2.829-1.153 2.829-1.876 0-.974-.524-1.896-3.143-2.525-2.923-.702-4.925-1.907-4.925-4.327 0-2.022 1.635-3.342 3.667-3.783V7.111h3.143v2.295c2.19.534 3.29 2.19 3.363 3.992h-2.316c-.063-1.31-.754-2.2-2.619-2.2-1.771 0-2.829.796-2.829 1.938z"/>
        </symbol>
        <symbol id="new-home" viewBox="0 0 32 32">
            <path d="M32 0H0v32h32V0zM13.418 17.987v6.902H7.664v-9.203H4.211L15.72 5.333l11.509 10.353h-3.453v9.203h-5.754v-6.902h-4.604z"/>
        </symbol>
        <symbol id="new-stat" viewBox="0 0 32 32">
            <path d="M32 32H0V0h32v32zM24.842 9.825c-1.081 0-1.965.926-1.965 2.058 0 .185.019.36.068.525l-3.488 3.664c-.157-.051-.334-.072-.511-.072s-.354.021-.511.072l-2.506-2.625c.049-.165.069-.35.069-.535 0-1.132-.884-2.058-1.965-2.058s-1.965.926-1.965 2.058c0 .185.02.371.069.535l-4.48 4.683a1.61 1.61 0 0 0-.501-.072c-1.081 0-1.965.926-1.965 2.058s.884 2.058 1.965 2.058 1.965-.926 1.965-2.058c0-.185-.019-.36-.068-.525l4.47-4.693c.157.051.335.072.511.072s.354-.02.511-.072l2.505 2.624c-.049.165-.068.35-.068.535 0 1.132.884 2.058 1.965 2.058s1.965-.926 1.965-2.058a1.9 1.9 0 0 0-.068-.535l3.498-3.654c.157.051.324.072.501.072 1.081 0 1.965-.926 1.965-2.058s-.884-2.058-1.965-2.058z"/>
        </symbol>
    </defs>
</svg>
