<svg width="25" height="23" viewBox="0 0 25 23" fill="none" xmlns="http://www.w3.org/2000/svg">
<g clip-path="url(#clip0_31_4689)">
<path fill-rule="evenodd" clip-rule="evenodd" d="M17.0684 3.08869C15.4051 2.69093 13.7418 1.89542 12.4942 0.702148C11.2467 1.89542 9.58339 2.69093 7.92004 3.08869C8.33588 6.6685 9.58339 9.05504 12.4942 11.0438C15.4051 9.05504 17.0684 6.6685 17.0684 3.08869Z" fill="#FFB627"/>
<path fill-rule="evenodd" clip-rule="evenodd" d="M15.405 17.8989L3.7616 4.77295V11.1371L12.91 21.081L15.405 17.8989Z" fill="#FBFBFB"/>
<path fill-rule="evenodd" clip-rule="evenodd" d="M16.6528 16.7058L21.6428 11.1372V5.1709L13.7419 13.9215L16.6528 16.7058Z" fill="#FBFBFB"/>
<path fill-rule="evenodd" clip-rule="evenodd" d="M17.0686 18.6945V22.2743L21.6428 17.1035V13.5237L17.0686 18.6945Z" fill="#FBFBFB"/>
<path fill-rule="evenodd" clip-rule="evenodd" d="M8.3358 18.6945L3.7616 13.5237V17.1035L8.3358 22.2743V18.6945Z" fill="#FBFBFB"/>
</g>
<defs>
<clipPath id="clip0_31_4689">
<rect width="23.4894" height="22.4681" fill="white" transform="translate(0.957397)"/>
</clipPath>
</defs>
</svg>
